<?xml version="1.0" standalone="no"?>
<!DOCTYPE svg PUBLIC "-//W3C//DTD SVG 20010904//EN"
 "http://www.w3.org/TR/2001/REC-SVG-20010904/DTD/svg10.dtd">
<svg version="1.0" xmlns="http://www.w3.org/2000/svg"
 width="512.000000pt" height="512.000000pt" viewBox="0 0 512.000000 512.000000"
 preserveAspectRatio="xMidYMid meet">
<metadata>
Created by potrace 1.16, written by Peter Selinger 2001-2019
</metadata>
<g transform="translate(0.000000,512.000000) scale(0.100000,-0.100000)"
fill="#000000" stroke="none">
<path d="M987 5096 c-107 -44 -169 -109 -217 -229 l-25 -62 -3 -1560 c-3
-1703 -4 -1668 55 -1885 88 -328 240 -595 474 -829 349 -349 792 -531 1289
-531 497 0 939 182 1289 531 639 638 711 1658 167 2384 -124 166 -333 357
-503 459 -315 189 -646 275 -1013 263 -314 -10 -579 -84 -839 -233 -52 -30
-95 -54 -97 -54 -2 0 -5 318 -6 708 -3 702 -3 707 -26 774 -43 127 -145 231
-266 271 -76 26 -207 22 -279 -7z m1813 -2306 c115 -28 286 -114 386 -193 168
-134 292 -329 350 -552 28 -105 26 -361 -4 -467 -99 -359 -352 -618 -707 -725
-83 -25 -104 -27 -265 -27 -161 0 -182 2 -265 27 -355 107 -609 367 -707 725
-31 114 -31 364 0 478 107 394 407 674 802 749 103 20 299 13 410 -15z"/>
</g>
</svg>
